<!-- Professional SVG background for "autotexteffect"
     - Scalable (viewBox)
     - CSS variables for easy color tweaks
     - Subtle noise + soft organic blobs + diagonal grid
     - Use inline in HTML or as a standalone .svg file
-->
<svg xmlns="http://www.w3.org/2000/svg" viewBox="0 0 1600 900" preserveAspectRatio="xMidYMid slice">
  <defs>
    <!-- color variables (override with inline style or CSS) -->
    <style>
      :root {
        --bg: #0f1724;        /* background base */
        --accent: #4fd1c5;    /* main accent */
        --accent-2: #7c3aed;  /* secondary accent */
        --muted: rgba(255,255,255,0.06); /* soft overlays */
      }
    </style>

    <!-- soft linear gradient -->
    <linearGradient id="g1" x1="0" x2="1">
      <stop offset="0" stop-color="var(--accent)" stop-opacity="0.18"/>
      <stop offset="0.6" stop-color="var(--accent-2)" stop-opacity="0.14"/>
      <stop offset="1" stop-color="var(--bg)" stop-opacity="0.0"/>
    </linearGradient>

    <!-- subtle radial highlight -->
    <radialGradient id="g2" cx="0.8" cy="0.2" r="0.9">
      <stop offset="0" stop-color="white" stop-opacity="0.08"/>
      <stop offset="1" stop-color="white" stop-opacity="0"/>
    </radialGradient>

    <!-- organic blob shapes as reusable path -->
    <path id="blob" d="M421 110C490 86 607 50 733 88c126 38 192 122 206 191 13 69-27 137-90 183-63 46-156 62-255 44-99-18-211-72-235-152-24-80 15-171 161-254z"/>

    <!-- diagonal grid pattern -->
    <pattern id="diag" width="40" height="40" patternUnits="userSpaceOnUse" patternTransform="rotate(25)">
      <rect width="40" height="40" fill="transparent"/>
      <path d="M0 0 L0 0" fill="none" />
      <path d="M0 0 L0 40" stroke="rgba(255,255,255,0.02)" stroke-width="1"/>
    </pattern>

    <!-- grain/noise texture (small, subtle) -->
    <filter id="grain">
      <feTurbulence baseFrequency="0.9" numOctaves="2" stitchTiles="stitch" type="fractalNoise" result="noise" />
      <feColorMatrix type="saturate" values="0" in="noise" result="mono" />
      <feComponentTransfer in="mono" result="grain">
        <feFuncA type="table" tableValues="0 0.06"/>
      </feComponentTransfer>
      <feBlend in="SourceGraphic" in2="grain" mode="overlay"/>
    </filter>

    <!-- gentle blur for depth -->
    <filter id="soft" x="-20%" y="-20%" width="140%" height="140%">
      <feGaussianBlur stdDeviation="36" result="b"/>
      <feComposite in="b" in2="SourceGraphic" operator="over"/>
    </filter>
  </defs>

  <!-- base background -->
  <rect width="100%" height="100%" fill="var(--bg)"/>

  <!-- large diagonal gradient wash -->
  <rect width="100%" height="100%" fill="url(#g1)" opacity="0.95" />

  <!-- left muted organic blob with blur -->
  <g transform="translate( -120, -40 ) scale(1.45)">
    <use href="#blob" fill="var(--accent)" opacity="0.12" filter="url(#soft)"/>
  </g>

  <!-- right subtle blob -->
  <g transform="translate(760,140) scale(1.25) rotate(18)">
    <use href="#blob" fill="var(--accent-2)" opacity="0.10" filter="url(#soft)"/>
  </g>

  <!-- diagonal glass panel -->
  <g transform="translate(0,0)">
    <polygon points="0,600 1600,260 1600,900 0,900" fill="url(#g2)" opacity="0.35"/>
  </g>

  <!-- thin diagonal grid for structure -->
  <rect width="100%" height="100%" fill="url(#diag)" opacity="0.7"/>

  <!-- boxed subtle glass lines -->
  <g opacity="0.06" stroke-linecap="round" stroke-width="1.5" stroke="white">
    <path d="M180 140 L680 80"/>
    <path d="M220 260 L760 200"/>
    <path d="M140 440 L620 380"/>
  </g>

  <!-- soft vignette -->
  <rect width="100%" height="100%" fill="black" opacity="0.12"/>

  <!-- content-friendly overlay (space for text/UI) -->
  <rect x="48" y="48" width="1200" height="420" rx="18" fill="rgba(255,255,255,0.02)" stroke="rgba(255,255,255,0.03)" />

  <!-- faint noise overlay using filter -->
  <rect width="100%" height="100%" fill="transparent" filter="url(#grain)"/>

  <!-- tiny accent dots (can align with controls/indicators) -->
  <g transform="translate(1280,84)" opacity="0.9">
    <circle cx="0" cy="0" r="6" fill="var(--accent)"/>
    <circle cx="20" cy="-6" r="4" fill="var(--accent-2)" opacity="0.85"/>
    <circle cx="36" cy="2" r="3" fill="white" opacity="0.5"/>
  </g>

  <!-- optional: accessible title/desc -->
  <title>Autotexteffect background</title>
  <desc>Subtle gradient and organic shapes designed as a professional background for UI with a focus area for text/effects.</desc>
</svg>
